<?xml version="1.0" encoding="utf-8"?>
<!-- Generator: Adobe Illustrator 26.0.0, SVG Export Plug-In . SVG Version: 6.00 Build 0)  -->
<svg version="1.1" id="Layer_1" xmlns="http://www.w3.org/2000/svg" xmlns:xlink="http://www.w3.org/1999/xlink" x="0px" y="0px"
	 viewBox="0 0 512 512" style="enable-background:new 0 0 512 512;" xml:space="preserve">
<style type="text/css">
	.st0{fill:#61DAFB;}
</style>
<g>
	<path class="st0" d="M491.12,256.05c0-31.14-39-60.66-98.8-78.96c13.8-60.95,7.67-109.44-19.36-124.96
		c-6.23-3.64-13.51-5.37-21.47-5.37v21.37c4.41,0,7.95,0.86,10.92,2.49c13.03,7.47,18.69,35.94,14.28,72.54
		c-1.05,9.01-2.78,18.5-4.89,28.17c-18.78-4.6-39.29-8.15-60.85-10.45c-12.94-17.73-26.35-33.83-39.87-47.92
		c31.24-29.04,60.57-44.94,80.5-44.94V46.66c-26.35,0-60.85,18.78-95.73,51.37c-34.88-32.39-69.38-50.98-95.73-50.98v21.37
		c19.84,0,49.26,15.81,80.5,44.66c-13.42,14.09-26.83,30.09-39.58,47.82c-21.66,2.3-42.17,5.85-60.95,10.54
		c-2.2-9.58-3.83-18.88-4.98-27.79c-4.5-36.61,1.05-65.07,13.99-72.64c2.87-1.72,6.61-2.49,11.02-2.49V47.14
		c-8.05,0-15.33,1.72-21.66,5.37c-26.93,15.52-32.97,63.92-19.07,124.68c-59.61,18.4-98.42,47.82-98.42,78.87
		c0,31.14,39,60.66,98.8,78.96c-13.8,60.95-7.67,109.44,19.36,124.96c6.23,3.64,13.51,5.37,21.56,5.37
		c26.35,0,60.85-18.78,95.73-51.37c34.88,32.39,69.38,50.98,95.73,50.98c8.05,0,15.33-1.72,21.66-5.37
		c26.93-15.52,32.97-63.92,19.07-124.68C452.31,316.61,491.12,287.1,491.12,256.05L491.12,256.05z M366.35,192.13
		c-3.55,12.36-7.95,25.11-12.94,37.85c-3.93-7.67-8.05-15.33-12.55-23c-4.41-7.67-9.1-15.14-13.8-22.42
		C340.66,186.57,353.79,189.06,366.35,192.13L366.35,192.13z M322.46,294.19c-7.47,12.94-15.14,25.2-23.1,36.61
		c-14.28,1.25-28.75,1.92-43.32,1.92c-14.47,0-28.94-0.67-43.12-1.82c-7.95-11.4-15.72-23.57-23.19-36.42
		c-7.28-12.55-13.9-25.3-19.93-38.14c5.94-12.84,12.65-25.68,19.84-38.24c7.47-12.94,15.14-25.2,23.1-36.61
		c14.28-1.25,28.75-1.92,43.32-1.92c14.47,0,28.94,0.67,43.12,1.82c7.95,11.4,15.72,23.57,23.19,36.42
		c7.28,12.55,13.9,25.3,19.93,38.14C336.26,268.79,329.64,281.63,322.46,294.19L322.46,294.19z M353.41,281.73
		c5.17,12.84,9.58,25.68,13.22,38.14c-12.55,3.07-25.78,5.65-39.48,7.67c4.7-7.38,9.39-14.95,13.8-22.71
		C345.36,297.16,349.48,289.4,353.41,281.73L353.41,281.73z M256.24,383.98c-8.91-9.2-17.82-19.45-26.64-30.67
		c8.62,0.38,17.44,0.67,26.35,0.67c9.01,0,17.92-0.19,26.64-0.67C273.97,364.53,265.05,374.78,256.24,383.98z M184.94,327.54
		c-13.61-2.01-26.74-4.5-39.29-7.57c3.55-12.36,7.95-25.11,12.94-37.85c3.93,7.67,8.05,15.33,12.55,23S180.24,320.25,184.94,327.54z
		 M255.76,128.11c8.91,9.2,17.82,19.45,26.64,30.67c-8.62-0.38-17.44-0.67-26.35-0.67c-9.01,0-17.92,0.19-26.64,0.67
		C238.03,147.57,246.94,137.31,255.76,128.11z M184.84,184.56c-4.7,7.38-9.39,14.95-13.8,22.71c-4.41,7.67-8.53,15.33-12.46,23
		c-5.17-12.84-9.58-25.68-13.22-38.14C157.91,189.16,171.14,186.57,184.84,184.56L184.84,184.56z M98.12,304.54
		c-33.92-14.47-55.87-33.44-55.87-48.49c0-15.05,21.95-34.12,55.87-48.49c8.24-3.55,17.25-6.71,26.55-9.68
		c5.46,18.78,12.65,38.33,21.56,58.36c-8.82,19.93-15.91,39.39-21.27,58.07C115.46,311.34,106.45,308.08,98.12,304.54L98.12,304.54z
		 M149.67,441.48c-13.03-7.47-18.69-35.94-14.28-72.54c1.05-9.01,2.78-18.5,4.89-28.17c18.78,4.6,39.29,8.15,60.85,10.45
		c12.94,17.73,26.35,33.83,39.87,47.92c-31.24,29.04-60.57,44.94-80.5,44.94C156.19,443.97,152.55,443.11,149.67,441.48
		L149.67,441.48z M376.98,368.46c4.5,36.61-1.05,65.07-13.99,72.64c-2.87,1.72-6.61,2.49-11.02,2.49
		c-19.84,0-49.26-15.81-80.5-44.66c13.42-14.09,26.83-30.09,39.58-47.82c21.66-2.3,42.17-5.85,60.95-10.54
		C374.2,350.25,375.93,359.55,376.98,368.46z M413.88,304.54c-8.24,3.55-17.25,6.71-26.55,9.68c-5.46-18.78-12.65-38.33-21.56-58.36
		c8.82-19.93,15.91-39.39,21.27-58.07c9.49,2.97,18.5,6.23,26.93,9.77c33.92,14.47,55.87,33.44,55.87,48.49
		C469.75,271.09,447.8,290.16,413.88,304.54L413.88,304.54z"/>
	<circle class="st0" cx="255.95" cy="256.05" r="43.79"/>
</g>
</svg>
