<svg width="848" height="894" viewBox="0 0 848 894" fill="none" xmlns="http://www.w3.org/2000/svg">
<g opacity="0.1" clip-path="url(#clip0_302_10)">
<path d="M699.526 602.794C738.505 546.986 724.864 470.146 669.056 431.166C613.249 392.186 536.408 405.828 497.428 461.636C458.449 517.443 472.09 594.283 527.898 633.263C583.705 672.243 660.546 658.601 699.526 602.794Z" fill="url(#paint0_linear_302_10)"/>
<path d="M695.96 595.599C734.94 539.791 721.298 462.951 665.491 423.971C609.683 384.991 532.843 398.633 493.863 454.441C454.883 510.248 468.525 587.088 524.332 626.068C580.14 665.048 656.98 651.406 695.96 595.599Z" fill="url(#paint1_linear_302_10)"/>
<path d="M692.257 588.307C731.237 532.5 717.595 455.66 661.787 416.68C605.98 377.7 529.14 391.342 490.16 447.149C451.18 502.957 464.822 579.797 520.629 618.777C576.437 657.757 653.277 644.115 692.257 588.307Z" fill="url(#paint2_linear_302_10)"/>
<path d="M688.554 581.016C727.533 525.209 713.892 448.368 658.084 409.389C602.277 370.409 525.436 384.05 486.457 439.858C447.477 495.666 461.118 572.506 516.926 611.486C572.734 650.465 649.574 636.824 688.554 581.016Z" fill="url(#paint3_linear_302_10)"/>
<path d="M684.851 573.725C723.83 517.918 710.189 441.077 654.381 402.098C598.574 363.118 521.733 376.759 482.754 432.567C443.774 488.375 457.416 565.215 513.223 604.195C569.031 643.174 645.871 629.533 684.851 573.725Z" fill="url(#paint4_linear_302_10)"/>
<path d="M681.148 566.434C720.127 510.626 706.486 433.786 650.678 394.806C594.871 355.827 518.03 369.468 479.051 425.276C440.071 481.083 453.712 557.924 509.52 596.903C565.327 635.883 642.168 622.242 681.148 566.434Z" fill="url(#paint5_linear_302_10)"/>
<path d="M677.582 559.239C716.562 503.431 702.92 426.591 647.113 387.611C591.305 348.632 514.465 362.273 475.485 418.081C436.505 473.888 450.147 550.729 505.954 589.708C561.762 628.688 638.602 615.046 677.582 559.239Z" fill="url(#paint6_linear_302_10)"/>
<path d="M673.879 551.948C712.859 496.14 699.217 419.3 643.41 380.32C587.602 341.34 510.762 354.982 471.782 410.789C432.802 466.597 446.444 543.437 502.251 582.417C558.059 621.397 634.899 607.755 673.879 551.948Z" fill="url(#paint7_linear_302_10)"/>
<path d="M670.176 544.656C709.156 488.849 695.514 412.009 639.706 373.029C583.899 334.049 507.059 347.691 468.079 403.498C429.099 459.306 442.741 536.146 498.548 575.126C554.356 614.106 631.196 600.464 670.176 544.656Z" fill="url(#paint8_linear_302_10)"/>
<path d="M666.473 537.365C705.453 481.558 691.811 404.717 636.003 365.738C580.196 326.758 503.356 340.4 464.376 396.207C425.396 452.015 439.038 528.855 494.845 567.835C550.653 606.814 627.493 593.173 666.473 537.365Z" fill="url(#paint9_linear_302_10)"/>
<path d="M662.77 530.074C701.749 474.267 688.108 397.426 632.3 358.447C576.493 319.467 499.652 333.108 460.673 388.916C421.693 444.723 435.334 521.564 491.142 560.543C546.95 599.523 623.79 585.882 662.77 530.074Z" fill="url(#paint10_linear_302_10)"/>
<path d="M659.204 522.879C698.184 467.071 684.542 390.231 628.735 351.251C572.927 312.272 496.087 325.913 457.107 381.721C418.127 437.528 431.769 514.369 487.577 553.348C543.384 592.328 620.224 578.687 659.204 522.879Z" fill="url(#paint11_linear_302_10)"/>
<path d="M655.501 515.588C694.481 459.78 680.839 382.94 625.032 343.96C569.224 304.98 492.384 318.622 453.404 374.43C414.424 430.237 428.066 507.077 483.873 546.057C539.681 585.037 616.521 571.395 655.501 515.588Z" fill="url(#paint12_linear_302_10)"/>
<path d="M651.798 508.297C690.778 452.489 677.136 375.649 621.329 336.669C565.521 297.689 488.681 311.331 449.701 367.138C410.721 422.946 424.363 499.786 480.17 538.766C535.978 577.746 612.818 564.104 651.798 508.297Z" fill="url(#paint13_linear_302_10)"/>
<path d="M648.095 501.005C687.075 445.198 673.433 368.358 617.625 329.378C561.818 290.398 484.978 304.04 445.998 359.847C407.018 415.655 420.66 492.495 476.467 531.475C532.275 570.455 609.115 556.813 648.095 501.005Z" fill="url(#paint14_linear_302_10)"/>
<path d="M644.392 493.714C683.371 437.907 669.73 361.066 613.922 322.087C558.115 283.107 481.274 296.748 442.295 352.556C403.315 408.364 416.957 485.204 472.764 524.184C528.572 563.163 605.412 549.522 644.392 493.714Z" fill="url(#paint15_linear_302_10)"/>
<path d="M640.826 486.519C679.806 430.712 666.164 353.871 610.357 314.892C554.549 275.912 477.709 289.553 438.729 345.361C399.749 401.168 413.391 478.009 469.198 516.989C525.006 555.968 601.846 542.327 640.826 486.519Z" fill="url(#paint16_linear_302_10)"/>
<path d="M637.123 479.228C676.103 423.42 662.461 346.58 606.654 307.6C550.846 268.621 474.006 282.262 435.026 338.07C396.046 393.877 409.688 470.718 465.496 509.697C521.303 548.677 598.143 535.035 637.123 479.228Z" fill="url(#paint17_linear_302_10)"/>
<path d="M633.42 471.937C672.4 416.129 658.758 339.289 602.951 300.309C547.143 261.329 470.303 274.971 431.323 330.779C392.343 386.586 405.985 463.426 461.792 502.406C517.6 541.386 594.44 527.744 633.42 471.937Z" fill="url(#paint18_linear_302_10)"/>
<path d="M629.717 464.646C668.697 408.838 655.055 331.998 599.247 293.018C543.44 254.038 466.6 267.68 427.62 323.487C388.64 379.295 402.282 456.135 458.089 495.115C513.897 534.095 590.737 520.453 629.717 464.646Z" fill="url(#paint19_linear_302_10)"/>
<path d="M626.151 457.45C665.131 401.643 651.489 324.803 595.682 285.823C539.874 246.843 463.034 260.485 424.054 316.292C385.074 372.1 398.716 448.94 454.524 487.92C510.331 526.9 587.171 513.258 626.151 457.45Z" fill="url(#paint20_linear_302_10)"/>
<path d="M622.448 450.159C661.428 394.352 647.786 317.511 591.979 278.532C536.171 239.552 459.331 253.194 420.351 309.001C381.372 364.809 395.013 441.649 450.821 480.629C506.628 519.608 583.469 505.967 622.448 450.159Z" fill="url(#paint21_linear_302_10)"/>
<path d="M618.649 443.005C657.629 387.198 643.987 310.358 588.18 271.378C532.372 232.398 455.532 246.04 416.552 301.847C377.572 357.655 391.214 434.495 447.021 473.475C502.829 512.455 579.669 498.813 618.649 443.005Z" fill="url(#paint22_linear_302_10)"/>
<path d="M614.946 435.714C653.926 379.907 640.284 303.067 584.476 264.087C528.669 225.107 451.829 238.749 412.849 294.556C373.869 350.364 387.511 427.204 443.318 466.184C499.126 505.164 575.966 491.522 614.946 435.714Z" fill="url(#paint23_linear_302_10)"/>
<path d="M611.243 428.423C650.223 372.616 636.581 295.775 580.774 256.796C524.966 217.816 448.126 231.457 409.146 287.265C370.166 343.073 383.808 419.913 439.615 458.893C495.423 497.872 572.263 484.231 611.243 428.423Z" fill="url(#paint24_linear_302_10)"/>
<path d="M607.677 421.228C646.657 365.42 633.015 288.58 577.208 249.6C521.4 210.621 444.56 224.262 405.58 280.07C366.601 335.877 380.242 412.718 436.05 451.697C491.857 490.677 568.697 477.036 607.677 421.228Z" fill="url(#paint25_linear_302_10)"/>
<path d="M603.974 413.937C642.954 358.129 629.312 281.289 573.505 242.309C517.697 203.33 440.857 216.971 401.877 272.779C362.897 328.586 376.539 405.427 432.347 444.406C488.154 483.386 564.994 469.744 603.974 413.937Z" fill="url(#paint26_linear_302_10)"/>
<path d="M600.271 406.646C639.251 350.838 625.609 273.998 569.802 235.018C513.994 196.038 437.154 209.68 398.174 265.487C359.194 321.295 372.836 398.135 428.643 437.115C484.451 476.095 561.291 462.453 600.271 406.646Z" fill="url(#paint27_linear_302_10)"/>
<path d="M596.568 399.354C635.548 343.547 621.906 266.707 566.099 227.727C510.291 188.747 433.451 202.389 394.471 258.196C355.491 314.004 369.133 390.844 424.941 429.824C480.748 468.803 557.588 455.162 596.568 399.354Z" fill="url(#paint28_linear_302_10)"/>
<path d="M592.865 392.063C631.845 336.256 618.203 259.416 562.396 220.436C506.588 181.456 429.748 195.098 390.768 250.905C351.788 306.713 365.43 383.553 421.237 422.533C477.045 461.512 553.885 447.871 592.865 392.063Z" fill="url(#paint29_linear_302_10)"/>
<path d="M589.299 384.868C628.279 329.061 614.638 252.22 558.83 213.241C503.022 174.261 426.182 187.902 387.202 243.71C348.223 299.517 361.864 376.358 417.672 415.338C473.479 454.317 550.32 440.676 589.299 384.868Z" fill="url(#paint30_linear_302_10)"/>
<path d="M585.596 377.577C624.576 321.769 610.934 244.929 555.127 205.949C499.319 166.97 422.479 180.611 383.499 236.419C344.52 292.226 358.161 369.067 413.969 408.046C469.776 447.026 546.616 433.385 585.596 377.577Z" fill="url(#paint31_linear_302_10)"/>
<path d="M581.893 370.286C620.873 314.478 607.231 237.638 551.424 198.658C495.616 159.678 418.776 173.32 379.796 229.128C340.816 284.935 354.458 361.776 410.266 400.755C466.073 439.735 542.913 426.094 581.893 370.286Z" fill="url(#paint32_linear_302_10)"/>
<path d="M578.19 362.995C617.17 307.187 603.528 230.347 547.721 191.367C491.913 152.387 415.073 166.029 376.093 221.836C337.114 277.644 350.755 354.484 406.563 393.464C462.37 432.444 539.211 418.802 578.19 362.995Z" fill="url(#paint33_linear_302_10)"/>
<path d="M574.487 355.704C613.467 299.896 599.825 223.056 544.018 184.076C488.21 145.096 411.37 158.738 372.39 214.545C333.41 270.353 347.052 347.193 402.86 386.173C458.667 425.153 535.507 411.511 574.487 355.704Z" fill="url(#paint34_linear_302_10)"/>
<path d="M570.921 348.508C609.901 292.701 596.26 215.86 540.452 176.881C484.645 137.901 407.804 151.543 368.824 207.35C329.845 263.158 343.486 339.998 399.294 378.978C455.101 417.957 531.942 404.316 570.921 348.508Z" fill="url(#paint35_linear_302_10)"/>
<path d="M567.218 341.217C606.198 285.41 592.556 208.569 536.749 169.59C480.941 130.61 404.101 144.251 365.121 200.059C326.142 255.866 339.783 332.707 395.591 371.687C451.398 410.666 528.238 397.025 567.218 341.217Z" fill="url(#paint36_linear_302_10)"/>
<path d="M563.515 333.926C602.495 278.118 588.853 201.278 533.046 162.298C477.238 123.319 400.398 136.96 361.418 192.768C322.439 248.575 336.08 325.415 391.888 364.395C447.695 403.375 524.536 389.733 563.515 333.926Z" fill="url(#paint37_linear_302_10)"/>
<path d="M559.812 326.635C598.792 270.827 585.15 193.987 529.343 155.007C473.535 116.027 396.695 129.669 357.715 185.477C318.736 241.284 332.377 318.124 388.185 357.104C443.992 396.084 520.832 382.442 559.812 326.635Z" fill="url(#paint38_linear_302_10)"/>
<path d="M556.247 319.44C595.226 263.632 581.585 186.792 525.777 147.812C469.97 108.832 393.129 122.474 354.15 178.281C315.17 234.089 328.812 310.929 384.619 349.909C440.427 388.889 517.267 375.247 556.247 319.44Z" fill="url(#paint39_linear_302_10)"/>
<path d="M552.544 312.148C591.523 256.341 577.882 179.501 522.074 140.521C466.267 101.541 389.426 115.183 350.447 170.99C311.467 226.798 325.108 303.638 380.916 342.618C436.723 381.598 513.564 367.956 552.544 312.148Z" fill="url(#paint40_linear_302_10)"/>
<path d="M548.84 304.857C587.82 249.05 574.178 172.209 518.371 133.23C462.563 94.2499 385.723 107.892 346.743 163.699C307.764 219.507 321.405 296.347 377.213 335.327C433.02 374.306 509.861 360.665 548.84 304.857Z" fill="url(#paint41_linear_302_10)"/>
<path d="M545.138 297.566C584.117 241.758 570.476 164.918 514.668 125.938C458.861 86.9586 382.02 100.6 343.041 156.408C304.061 212.215 317.702 289.056 373.51 328.035C429.318 367.015 506.158 353.373 545.138 297.566Z" fill="url(#paint42_linear_302_10)"/>
<path d="M541.434 290.275C580.414 234.467 566.773 157.627 510.965 118.647C455.157 79.6675 378.317 93.3091 339.337 149.117C300.358 204.924 313.999 281.764 369.807 320.744C425.614 359.724 502.455 346.082 541.434 290.275Z" fill="url(#paint43_linear_302_10)"/>
<path d="M537.869 283.08C576.848 227.272 563.207 150.432 507.399 111.452C451.592 72.4723 374.751 86.114 335.772 141.922C296.792 197.729 310.434 274.569 366.241 313.549C422.049 352.529 498.889 338.887 537.869 283.08Z" fill="url(#paint44_linear_302_10)"/>
<path d="M534.166 275.789C573.145 219.981 559.504 143.141 503.696 104.161C447.889 65.1812 371.048 78.8229 332.069 134.63C293.089 190.438 306.73 267.278 362.538 306.258C418.346 345.238 495.186 331.596 534.166 275.789Z" fill="url(#paint45_linear_302_10)"/>
<path d="M530.462 268.497C569.442 212.69 555.801 135.85 499.993 96.8699C444.186 57.8901 367.345 71.5317 328.366 127.339C289.386 183.147 303.027 259.987 358.835 298.967C414.642 337.947 491.483 324.305 530.462 268.497Z" fill="url(#paint46_linear_302_10)"/>
<path d="M526.76 261.206C565.739 205.399 552.098 128.558 496.29 89.5786C440.483 50.5988 363.642 64.2404 324.663 120.048C285.683 175.855 299.324 252.696 355.132 291.675C410.94 330.655 487.78 317.014 526.76 261.206Z" fill="url(#paint47_linear_302_10)"/>
<path d="M523.056 253.915C562.036 198.107 548.395 121.267 492.587 82.2874C436.78 43.3077 359.939 56.9493 320.959 112.757C281.98 168.564 295.621 245.405 351.429 284.384C407.236 323.364 484.077 309.722 523.056 253.915Z" fill="url(#paint48_linear_302_10)"/>
<path d="M519.491 246.72C558.471 190.912 544.829 114.072 489.021 75.0923C433.214 36.1125 356.374 49.7541 317.394 105.562C278.414 161.369 292.056 238.209 347.863 277.189C403.671 316.169 480.511 302.527 519.491 246.72Z" fill="url(#paint49_linear_302_10)"/>
<path d="M515.069 248.95C554.049 193.142 540.407 116.302 484.6 77.3224C428.792 38.3427 351.952 51.9842 312.972 107.792C273.993 163.599 287.634 240.44 343.442 279.419C399.249 318.399 476.09 304.757 515.069 248.95Z" fill="url(#paint50_linear_302_10)"/>
<path d="M510.227 255.591C549.206 199.783 535.565 122.943 479.757 83.963C423.95 44.9832 347.109 58.6248 308.13 114.432C269.15 170.24 282.791 247.08 338.599 286.06C394.407 325.04 471.247 311.398 510.227 255.591Z" fill="url(#paint51_linear_302_10)"/>
<path d="M505.384 262.231C544.364 206.424 530.722 129.583 474.914 90.6035C419.107 51.6237 342.267 65.2653 303.287 121.073C264.307 176.88 277.949 253.721 333.756 292.7C389.564 331.68 466.404 318.039 505.384 262.231Z" fill="url(#paint52_linear_302_10)"/>
<path d="M500.775 268.83C539.754 213.023 526.113 136.182 470.305 97.2026C414.498 58.2228 337.657 71.8645 298.678 127.672C259.698 183.48 273.34 260.32 329.147 299.3C384.955 338.279 461.795 324.638 500.775 268.83Z" fill="url(#paint53_linear_302_10)"/>
<path d="M495.932 275.471C534.912 219.663 521.27 142.823 465.463 103.843C409.655 64.8634 332.815 78.505 293.835 134.312C254.855 190.12 268.497 266.96 324.304 305.94C380.112 344.92 456.952 331.278 495.932 275.471Z" fill="url(#paint54_linear_302_10)"/>
<path d="M491.323 282.07C530.302 226.262 516.661 149.422 460.853 110.442C405.046 71.4624 328.205 85.1041 289.226 140.912C250.246 196.719 263.887 273.559 319.695 312.539C375.502 351.519 452.343 337.877 491.323 282.07Z" fill="url(#paint55_linear_302_10)"/>
<path d="M486.48 288.71C525.46 232.903 511.818 156.063 456.011 117.083C400.203 78.103 323.363 91.7446 284.383 147.552C245.403 203.36 259.045 280.2 314.852 319.18C370.66 358.16 447.5 344.518 486.48 288.71Z" fill="url(#paint56_linear_302_10)"/>
<path d="M481.733 295.213C520.713 239.406 507.071 162.566 451.264 123.586C395.456 84.606 318.616 98.2476 279.636 154.055C240.656 209.863 254.298 286.703 310.106 325.683C365.913 364.662 442.753 351.021 481.733 295.213Z" fill="url(#paint57_linear_302_10)"/>
<path d="M477.028 301.95C516.007 246.142 502.366 169.302 446.558 130.322C390.751 91.3426 313.911 104.984 274.931 160.792C235.951 216.599 249.593 293.439 305.4 332.419C361.208 371.399 438.048 357.757 477.028 301.95Z" fill="url(#paint58_linear_302_10)"/>
<path d="M472.281 308.453C511.261 252.645 497.619 175.805 441.812 136.825C386.004 97.8457 309.164 111.487 270.184 167.295C231.204 223.102 244.846 299.942 300.653 338.922C356.461 377.902 433.301 364.26 472.281 308.453Z" fill="url(#paint59_linear_302_10)"/>
<path d="M467.438 315.094C506.418 259.286 492.776 182.446 436.969 143.466C381.161 104.486 304.321 118.128 265.341 173.935C226.362 229.743 240.003 306.583 295.811 345.563C351.618 384.543 428.458 370.901 467.438 315.094Z" fill="url(#paint60_linear_302_10)"/>
<path d="M462.733 321.83C501.713 266.023 488.071 189.182 432.264 150.203C376.456 111.223 299.616 124.864 260.636 180.672C221.656 236.479 235.298 313.32 291.105 352.3C346.913 391.279 423.753 377.638 462.733 321.83Z" fill="url(#paint61_linear_302_10)"/>
<path d="M457.986 328.333C496.966 272.526 483.324 195.685 427.517 156.706C371.709 117.726 294.869 131.368 255.889 187.175C216.91 242.983 230.551 319.823 286.359 358.803C342.166 397.782 419.007 384.141 457.986 328.333Z" fill="url(#paint62_linear_302_10)"/>
<path d="M453.144 334.974C492.123 279.166 478.482 202.326 422.674 163.346C366.867 124.366 290.026 138.008 251.047 193.816C212.067 249.623 225.708 326.463 281.516 365.443C337.323 404.423 414.164 390.781 453.144 334.974Z" fill="url(#paint63_linear_302_10)"/>
<path d="M448.534 341.573C487.514 285.765 473.872 208.925 418.065 169.945C362.257 130.965 285.417 144.607 246.437 200.415C207.457 256.222 221.099 333.062 276.907 372.042C332.714 411.022 409.554 397.38 448.534 341.573Z" fill="url(#paint64_linear_302_10)"/>
<path d="M443.692 348.213C482.671 292.406 469.03 215.566 413.222 176.586C357.415 137.606 280.574 151.248 241.594 207.055C202.615 262.863 216.256 339.703 272.064 378.683C327.871 417.663 404.712 404.021 443.692 348.213Z" fill="url(#paint65_linear_302_10)"/>
<path d="M438.945 354.716C477.925 298.909 464.283 222.069 408.476 183.089C352.668 144.109 275.828 157.751 236.848 213.558C197.868 269.366 211.51 346.206 267.317 385.186C323.125 424.166 399.965 410.524 438.945 354.716Z" fill="url(#paint66_linear_302_10)"/>
<path d="M434.24 361.453C473.219 305.645 459.578 228.805 403.77 189.825C347.963 150.846 271.122 164.487 232.143 220.295C193.163 276.102 206.804 352.943 262.612 391.922C318.42 430.902 395.26 417.261 434.24 361.453Z" fill="url(#paint67_linear_302_10)"/>
<path d="M429.397 368.094C468.377 312.286 454.735 235.446 398.927 196.466C343.12 157.486 266.28 171.128 227.3 226.935C188.32 282.743 201.962 359.583 257.769 398.563C313.577 437.543 390.417 423.901 429.397 368.094Z" fill="url(#paint68_linear_302_10)"/>
<path d="M424.788 374.693C463.767 318.885 450.126 242.045 394.318 203.065C338.511 164.085 261.67 177.727 222.691 233.534C183.711 289.342 197.353 366.182 253.16 405.162C308.968 444.142 385.808 430.5 424.788 374.693Z" fill="url(#paint69_linear_302_10)"/>
<path d="M419.945 381.333C458.925 325.526 445.283 248.685 389.475 209.706C333.668 170.726 256.828 184.367 217.848 240.175C178.868 295.982 192.51 372.823 248.317 411.802C304.125 450.782 380.965 437.141 419.945 381.333Z" fill="url(#paint70_linear_302_10)"/>
<path d="M415.198 387.836C454.178 332.029 440.536 255.188 384.729 216.209C328.921 177.229 252.081 190.87 213.101 246.678C174.121 302.485 187.763 379.326 243.57 418.306C299.378 457.285 376.218 443.644 415.198 387.836Z" fill="url(#paint71_linear_302_10)"/>
<path d="M410.493 394.573C449.473 338.765 435.831 261.925 380.023 222.945C324.216 183.965 247.376 197.607 208.396 253.415C169.416 309.222 183.058 386.062 238.865 425.042C294.673 464.022 371.513 450.38 410.493 394.573Z" fill="url(#paint72_linear_302_10)"/>
<path d="M405.746 401.076C444.726 345.268 431.084 268.428 375.277 229.448C319.469 190.468 242.629 204.11 203.649 259.918C164.669 315.725 178.311 392.565 234.119 431.545C289.926 470.525 366.766 456.883 405.746 401.076Z" fill="url(#paint73_linear_302_10)"/>
<path d="M400.903 407.716C439.883 351.909 426.242 275.069 370.434 236.089C314.626 197.109 237.786 210.751 198.806 266.558C159.827 322.366 173.468 399.206 229.276 438.186C285.083 477.165 361.924 463.524 400.903 407.716Z" fill="url(#paint74_linear_302_10)"/>
<path d="M396.294 414.315C435.274 358.508 421.632 281.668 365.825 242.688C310.017 203.708 233.177 217.35 194.197 273.157C155.217 328.965 168.859 405.805 224.667 444.785C280.474 483.765 357.314 470.123 396.294 414.315Z" fill="url(#paint75_linear_302_10)"/>
<path d="M391.451 420.956C430.431 365.148 416.79 288.308 360.982 249.328C305.174 210.348 228.334 223.99 189.354 279.798C150.375 335.605 164.016 412.446 219.824 451.425C275.631 490.405 352.472 476.763 391.451 420.956Z" fill="url(#paint76_linear_302_10)"/>
<path d="M386.609 427.597C425.588 371.789 411.947 294.949 356.139 255.969C300.332 216.989 223.491 230.631 184.512 286.438C145.532 342.246 159.173 419.086 214.981 458.066C270.788 497.046 347.629 483.404 386.609 427.597Z" fill="url(#paint77_linear_302_10)"/>
<path d="M381.999 434.196C420.979 378.388 407.337 301.548 351.53 262.568C295.722 223.588 218.882 237.23 179.902 293.037C140.923 348.845 154.564 425.685 210.372 464.665C266.179 503.645 343.02 490.003 381.999 434.196Z" fill="url(#paint78_linear_302_10)"/>
<path d="M377.157 440.836C416.136 385.029 402.495 308.188 346.687 269.209C290.88 230.229 214.039 243.87 175.06 299.678C136.08 355.485 149.722 432.326 205.529 471.305C261.337 510.285 338.177 496.644 377.157 440.836Z" fill="url(#paint79_linear_302_10)"/>
<path d="M372.547 447.435C411.527 391.628 397.886 314.787 342.078 275.808C286.27 236.828 209.43 250.469 170.45 306.277C131.471 362.085 145.112 438.925 200.92 477.905C256.727 516.884 333.568 503.243 372.547 447.435Z" fill="url(#paint80_linear_302_10)"/>
<path d="M367.704 454.076C406.684 398.268 393.043 321.428 337.235 282.448C281.428 243.468 204.587 257.11 165.608 312.918C126.628 368.725 140.269 445.565 196.077 484.545C251.884 523.525 328.725 509.883 367.704 454.076Z" fill="url(#paint81_linear_302_10)"/>
<path d="M362.958 460.579C401.938 404.771 388.296 327.931 332.488 288.951C276.681 249.971 199.841 263.613 160.861 319.421C121.881 375.228 135.523 452.068 191.33 491.048C247.138 530.028 323.978 516.386 362.958 460.579Z" fill="url(#paint82_linear_302_10)"/>
<path d="M358.253 467.315C397.232 411.508 383.591 334.668 327.783 295.688C271.976 256.708 195.135 270.35 156.156 326.157C117.176 381.965 130.817 458.805 186.625 497.785C242.433 536.765 319.273 523.123 358.253 467.315Z" fill="url(#paint83_linear_302_10)"/>
<path d="M353.506 473.818C392.486 418.011 378.844 341.171 323.036 302.191C267.229 263.211 190.389 276.853 151.409 332.66C112.429 388.468 126.071 465.308 181.878 504.288C237.686 543.268 314.526 529.626 353.506 473.818Z" fill="url(#paint84_linear_302_10)"/>
<path d="M348.663 480.459C387.643 424.652 374.001 347.811 318.194 308.832C262.386 269.852 185.546 283.493 146.566 339.301C107.586 395.108 121.228 471.949 177.036 510.928C232.843 549.908 309.683 536.267 348.663 480.459Z" fill="url(#paint85_linear_302_10)"/>
<path d="M343.958 487.196C382.938 431.388 369.296 354.548 313.488 315.568C257.681 276.588 180.841 290.23 141.861 346.037C102.881 401.845 116.523 478.685 172.33 517.665C228.138 556.645 304.978 543.003 343.958 487.196Z" fill="url(#paint86_linear_302_10)"/>
<path d="M339.211 493.698C378.191 437.891 364.549 361.051 308.742 322.071C252.934 283.091 176.094 296.733 137.114 352.54C98.1344 408.348 111.776 485.188 167.583 524.168C223.391 563.148 300.231 549.506 339.211 493.698Z" fill="url(#paint87_linear_302_10)"/>
<path d="M334.368 500.339C373.348 444.532 359.706 367.691 303.899 328.712C248.091 289.732 171.251 303.373 132.271 359.181C93.2916 414.988 106.933 491.829 162.741 530.808C218.548 569.788 295.389 556.147 334.368 500.339Z" fill="url(#paint88_linear_302_10)"/>
<path d="M329.759 506.938C368.739 451.131 355.097 374.29 299.29 335.311C243.482 296.331 166.642 309.972 127.662 365.78C88.6823 421.588 102.324 498.428 158.131 537.408C213.939 576.387 290.779 562.746 329.759 506.938Z" fill="url(#paint89_linear_302_10)"/>
<path d="M324.916 513.579C363.896 457.771 350.254 380.931 294.447 341.951C238.639 302.971 161.799 316.613 122.819 372.421C83.8396 428.228 97.4812 505.068 153.289 544.048C209.096 583.028 285.937 569.386 324.916 513.579Z" fill="url(#paint90_linear_302_10)"/>
<path d="M320.17 520.082C359.149 464.274 345.508 387.434 289.7 348.454C233.893 309.474 157.052 323.116 118.073 378.924C79.0929 434.731 92.7345 511.571 148.542 550.551C204.349 589.531 281.19 575.889 320.17 520.082Z" fill="url(#paint91_linear_302_10)"/>
<path d="M315.464 526.818C354.444 471.011 340.802 394.17 284.995 355.191C229.187 316.211 152.347 329.853 113.367 385.66C74.3876 441.468 88.0291 518.308 143.837 557.288C199.644 596.267 276.484 582.626 315.464 526.818Z" fill="url(#paint92_linear_302_10)"/>
<path d="M310.718 533.321C349.697 477.514 336.056 400.674 280.248 361.694C224.441 322.714 147.6 336.356 108.621 392.163C69.6408 447.971 83.2824 524.811 139.09 563.791C194.898 602.771 271.738 589.129 310.718 533.321Z" fill="url(#paint93_linear_302_10)"/>
<path d="M306.012 540.058C344.992 484.25 331.35 407.41 275.543 368.43C219.735 329.451 142.895 343.092 103.915 398.9C64.9355 454.707 78.5771 531.548 134.385 570.527C190.192 609.507 267.032 595.866 306.012 540.058Z" fill="url(#paint94_linear_302_10)"/>
<path d="M301.169 546.698C340.149 490.891 326.508 414.051 270.7 375.071C214.893 336.091 138.052 349.733 99.0726 405.54C60.0929 461.348 73.7345 538.188 129.542 577.168C185.349 616.148 262.19 602.506 301.169 546.698Z" fill="url(#paint95_linear_302_10)"/>
<path d="M296.423 553.202C335.403 497.394 321.761 420.554 265.953 381.574C210.146 342.594 133.306 356.236 94.3259 412.043C55.3461 467.851 68.9876 544.691 124.795 583.671C180.603 622.651 257.443 609.009 296.423 553.202Z" fill="url(#paint96_linear_302_10)"/>
<path d="M291.718 559.938C330.697 504.131 317.056 427.29 261.248 388.311C205.441 349.331 128.6 362.972 89.6206 418.78C50.6408 474.588 64.2824 551.428 120.09 590.408C175.897 629.387 252.738 615.746 291.718 559.938Z" fill="url(#paint97_linear_302_10)"/>
<path d="M286.971 566.441C325.951 510.634 312.309 433.794 256.501 394.814C200.694 355.834 123.854 369.476 84.8739 425.283C45.8941 481.091 59.5358 557.931 115.343 596.911C171.151 635.89 247.991 622.249 286.971 566.441Z" fill="url(#paint98_linear_302_10)"/>
<path d="M282.128 573.082C321.108 517.274 307.466 440.434 251.659 401.454C195.851 362.475 119.011 376.116 80.0311 431.924C41.0514 487.731 54.693 564.571 110.501 603.551C166.308 642.531 243.148 628.889 282.128 573.082Z" fill="url(#paint99_linear_302_10)"/>
<path d="M277.519 579.681C316.499 523.873 302.857 447.033 247.05 408.053C191.242 369.074 114.402 382.715 75.4219 438.523C36.4421 494.33 50.0837 571.171 105.891 610.15C161.699 649.13 238.539 635.488 277.519 579.681Z" fill="url(#paint100_linear_302_10)"/>
<path d="M272.676 586.321C311.656 530.514 298.014 453.674 242.207 414.694C186.399 375.714 109.559 389.356 70.5791 445.163C31.5993 500.971 45.2409 577.811 101.048 616.791C156.856 655.771 233.696 642.129 272.676 586.321Z" fill="url(#paint101_linear_302_10)"/>
</g>
<defs>
<linearGradient id="paint0_linear_302_10" x1="475.344" y1="536.199" x2="721.729" y2="528.237" gradientUnits="userSpaceOnUse">
<stop stop-color="#29ABE2"/>
<stop offset="1" stop-color="#0000FF"/>
</linearGradient>
<linearGradient id="paint1_linear_302_10" x1="471.667" y1="528.933" x2="718.052" y2="520.971" gradientUnits="userSpaceOnUse">
<stop stop-color="#29ABE2"/>
<stop offset="1" stop-color="#0000FF"/>
</linearGradient>
<linearGradient id="paint2_linear_302_10" x1="467.99" y1="521.666" x2="714.375" y2="513.704" gradientUnits="userSpaceOnUse">
<stop stop-color="#29ABE2"/>
<stop offset="1" stop-color="#0000FF"/>
</linearGradient>
<linearGradient id="paint3_linear_302_10" x1="464.312" y1="514.4" x2="710.697" y2="506.438" gradientUnits="userSpaceOnUse">
<stop stop-color="#29ABE2"/>
<stop offset="1" stop-color="#0000FF"/>
</linearGradient>
<linearGradient id="paint4_linear_302_10" x1="460.635" y1="507.134" x2="707.02" y2="499.172" gradientUnits="userSpaceOnUse">
<stop stop-color="#29ABE2"/>
<stop offset="1" stop-color="#0000FF"/>
</linearGradient>
<linearGradient id="paint5_linear_302_10" x1="456.958" y1="499.867" x2="703.343" y2="491.905" gradientUnits="userSpaceOnUse">
<stop stop-color="#29ABE2"/>
<stop offset="1" stop-color="#0000FF"/>
</linearGradient>
<linearGradient id="paint6_linear_302_10" x1="453.281" y1="492.601" x2="699.666" y2="484.639" gradientUnits="userSpaceOnUse">
<stop stop-color="#29ABE2"/>
<stop offset="1" stop-color="#0000FF"/>
</linearGradient>
<linearGradient id="paint7_linear_302_10" x1="449.604" y1="485.334" x2="695.989" y2="477.372" gradientUnits="userSpaceOnUse">
<stop stop-color="#29ABE2"/>
<stop offset="1" stop-color="#0000FF"/>
</linearGradient>
<linearGradient id="paint8_linear_302_10" x1="445.927" y1="478.068" x2="692.312" y2="470.106" gradientUnits="userSpaceOnUse">
<stop stop-color="#29ABE2"/>
<stop offset="1" stop-color="#0000FF"/>
</linearGradient>
<linearGradient id="paint9_linear_302_10" x1="442.25" y1="470.802" x2="688.635" y2="462.84" gradientUnits="userSpaceOnUse">
<stop stop-color="#29ABE2"/>
<stop offset="1" stop-color="#0000FF"/>
</linearGradient>
<linearGradient id="paint10_linear_302_10" x1="438.572" y1="463.535" x2="684.957" y2="455.573" gradientUnits="userSpaceOnUse">
<stop stop-color="#29ABE2"/>
<stop offset="1" stop-color="#0000FF"/>
</linearGradient>
<linearGradient id="paint11_linear_302_10" x1="434.895" y1="456.269" x2="681.28" y2="448.307" gradientUnits="userSpaceOnUse">
<stop stop-color="#29ABE2"/>
<stop offset="1" stop-color="#0000FF"/>
</linearGradient>
<linearGradient id="paint12_linear_302_10" x1="431.218" y1="449.002" x2="677.603" y2="441.04" gradientUnits="userSpaceOnUse">
<stop stop-color="#29ABE2"/>
<stop offset="1" stop-color="#0000FF"/>
</linearGradient>
<linearGradient id="paint13_linear_302_10" x1="427.541" y1="441.736" x2="673.926" y2="433.774" gradientUnits="userSpaceOnUse">
<stop stop-color="#29ABE2"/>
<stop offset="1" stop-color="#0000FF"/>
</linearGradient>
<linearGradient id="paint14_linear_302_10" x1="423.864" y1="434.47" x2="670.249" y2="426.508" gradientUnits="userSpaceOnUse">
<stop stop-color="#29ABE2"/>
<stop offset="1" stop-color="#0000FF"/>
</linearGradient>
<linearGradient id="paint15_linear_302_10" x1="420.187" y1="427.203" x2="666.572" y2="419.241" gradientUnits="userSpaceOnUse">
<stop stop-color="#29ABE2"/>
<stop offset="1" stop-color="#0000FF"/>
</linearGradient>
<linearGradient id="paint16_linear_302_10" x1="416.509" y1="419.937" x2="662.894" y2="411.975" gradientUnits="userSpaceOnUse">
<stop stop-color="#29ABE2"/>
<stop offset="1" stop-color="#0000FF"/>
</linearGradient>
<linearGradient id="paint17_linear_302_10" x1="412.832" y1="412.67" x2="659.217" y2="404.708" gradientUnits="userSpaceOnUse">
<stop stop-color="#29ABE2"/>
<stop offset="1" stop-color="#0000FF"/>
</linearGradient>
<linearGradient id="paint18_linear_302_10" x1="409.155" y1="405.404" x2="655.54" y2="397.442" gradientUnits="userSpaceOnUse">
<stop stop-color="#29ABE2"/>
<stop offset="1" stop-color="#0000FF"/>
</linearGradient>
<linearGradient id="paint19_linear_302_10" x1="405.478" y1="398.138" x2="651.863" y2="390.176" gradientUnits="userSpaceOnUse">
<stop stop-color="#29ABE2"/>
<stop offset="1" stop-color="#0000FF"/>
</linearGradient>
<linearGradient id="paint20_linear_302_10" x1="401.801" y1="390.871" x2="648.186" y2="382.909" gradientUnits="userSpaceOnUse">
<stop stop-color="#29ABE2"/>
<stop offset="1" stop-color="#0000FF"/>
</linearGradient>
<linearGradient id="paint21_linear_302_10" x1="398.124" y1="383.605" x2="644.509" y2="375.643" gradientUnits="userSpaceOnUse">
<stop stop-color="#29ABE2"/>
<stop offset="1" stop-color="#0000FF"/>
</linearGradient>
<linearGradient id="paint22_linear_302_10" x1="394.446" y1="376.338" x2="640.831" y2="368.376" gradientUnits="userSpaceOnUse">
<stop stop-color="#29ABE2"/>
<stop offset="1" stop-color="#0000FF"/>
</linearGradient>
<linearGradient id="paint23_linear_302_10" x1="390.769" y1="369.072" x2="637.154" y2="361.11" gradientUnits="userSpaceOnUse">
<stop stop-color="#29ABE2"/>
<stop offset="1" stop-color="#0000FF"/>
</linearGradient>
<linearGradient id="paint24_linear_302_10" x1="387.092" y1="361.806" x2="633.477" y2="353.844" gradientUnits="userSpaceOnUse">
<stop stop-color="#29ABE2"/>
<stop offset="1" stop-color="#0000FF"/>
</linearGradient>
<linearGradient id="paint25_linear_302_10" x1="383.415" y1="354.539" x2="629.8" y2="346.577" gradientUnits="userSpaceOnUse">
<stop stop-color="#29ABE2"/>
<stop offset="1" stop-color="#0000FF"/>
</linearGradient>
<linearGradient id="paint26_linear_302_10" x1="379.738" y1="347.273" x2="626.123" y2="339.311" gradientUnits="userSpaceOnUse">
<stop stop-color="#29ABE2"/>
<stop offset="1" stop-color="#0000FF"/>
</linearGradient>
<linearGradient id="paint27_linear_302_10" x1="376.061" y1="340.007" x2="622.446" y2="332.045" gradientUnits="userSpaceOnUse">
<stop stop-color="#29ABE2"/>
<stop offset="1" stop-color="#0000FF"/>
</linearGradient>
<linearGradient id="paint28_linear_302_10" x1="372.384" y1="332.74" x2="618.769" y2="324.778" gradientUnits="userSpaceOnUse">
<stop stop-color="#29ABE2"/>
<stop offset="1" stop-color="#0000FF"/>
</linearGradient>
<linearGradient id="paint29_linear_302_10" x1="368.706" y1="325.474" x2="615.091" y2="317.512" gradientUnits="userSpaceOnUse">
<stop stop-color="#29ABE2"/>
<stop offset="1" stop-color="#0000FF"/>
</linearGradient>
<linearGradient id="paint30_linear_302_10" x1="365.029" y1="318.207" x2="611.414" y2="310.245" gradientUnits="userSpaceOnUse">
<stop stop-color="#29ABE2"/>
<stop offset="1" stop-color="#0000FF"/>
</linearGradient>
<linearGradient id="paint31_linear_302_10" x1="361.352" y1="310.941" x2="607.737" y2="302.979" gradientUnits="userSpaceOnUse">
<stop stop-color="#29ABE2"/>
<stop offset="1" stop-color="#0000FF"/>
</linearGradient>
<linearGradient id="paint32_linear_302_10" x1="357.675" y1="303.675" x2="604.06" y2="295.713" gradientUnits="userSpaceOnUse">
<stop stop-color="#29ABE2"/>
<stop offset="1" stop-color="#0000FF"/>
</linearGradient>
<linearGradient id="paint33_linear_302_10" x1="353.998" y1="296.408" x2="600.383" y2="288.446" gradientUnits="userSpaceOnUse">
<stop stop-color="#29ABE2"/>
<stop offset="1" stop-color="#0000FF"/>
</linearGradient>
<linearGradient id="paint34_linear_302_10" x1="350.321" y1="289.142" x2="596.706" y2="281.18" gradientUnits="userSpaceOnUse">
<stop stop-color="#29ABE2"/>
<stop offset="1" stop-color="#0000FF"/>
</linearGradient>
<linearGradient id="paint35_linear_302_10" x1="346.643" y1="281.875" x2="593.028" y2="273.913" gradientUnits="userSpaceOnUse">
<stop stop-color="#29ABE2"/>
<stop offset="1" stop-color="#0000FF"/>
</linearGradient>
<linearGradient id="paint36_linear_302_10" x1="342.966" y1="274.609" x2="589.351" y2="266.647" gradientUnits="userSpaceOnUse">
<stop stop-color="#29ABE2"/>
<stop offset="1" stop-color="#0000FF"/>
</linearGradient>
<linearGradient id="paint37_linear_302_10" x1="339.289" y1="267.342" x2="585.674" y2="259.38" gradientUnits="userSpaceOnUse">
<stop stop-color="#29ABE2"/>
<stop offset="1" stop-color="#0000FF"/>
</linearGradient>
<linearGradient id="paint38_linear_302_10" x1="335.612" y1="260.076" x2="581.997" y2="252.114" gradientUnits="userSpaceOnUse">
<stop stop-color="#29ABE2"/>
<stop offset="1" stop-color="#0000FF"/>
</linearGradient>
<linearGradient id="paint39_linear_302_10" x1="331.935" y1="252.81" x2="578.32" y2="244.848" gradientUnits="userSpaceOnUse">
<stop stop-color="#29ABE2"/>
<stop offset="1" stop-color="#0000FF"/>
</linearGradient>
<linearGradient id="paint40_linear_302_10" x1="328.258" y1="245.543" x2="574.643" y2="237.581" gradientUnits="userSpaceOnUse">
<stop stop-color="#29ABE2"/>
<stop offset="1" stop-color="#0000FF"/>
</linearGradient>
<linearGradient id="paint41_linear_302_10" x1="324.58" y1="238.277" x2="570.965" y2="230.315" gradientUnits="userSpaceOnUse">
<stop stop-color="#29ABE2"/>
<stop offset="1" stop-color="#0000FF"/>
</linearGradient>
<linearGradient id="paint42_linear_302_10" x1="320.903" y1="231.01" x2="567.288" y2="223.048" gradientUnits="userSpaceOnUse">
<stop stop-color="#29ABE2"/>
<stop offset="1" stop-color="#0000FF"/>
</linearGradient>
<linearGradient id="paint43_linear_302_10" x1="317.226" y1="223.744" x2="563.611" y2="215.782" gradientUnits="userSpaceOnUse">
<stop stop-color="#29ABE2"/>
<stop offset="1" stop-color="#0000FF"/>
</linearGradient>
<linearGradient id="paint44_linear_302_10" x1="313.549" y1="216.478" x2="559.934" y2="208.516" gradientUnits="userSpaceOnUse">
<stop stop-color="#29ABE2"/>
<stop offset="1" stop-color="#0000FF"/>
</linearGradient>
<linearGradient id="paint45_linear_302_10" x1="309.872" y1="209.212" x2="556.257" y2="201.25" gradientUnits="userSpaceOnUse">
<stop stop-color="#29ABE2"/>
<stop offset="1" stop-color="#0000FF"/>
</linearGradient>
<linearGradient id="paint46_linear_302_10" x1="306.195" y1="201.945" x2="552.58" y2="193.983" gradientUnits="userSpaceOnUse">
<stop stop-color="#29ABE2"/>
<stop offset="1" stop-color="#0000FF"/>
</linearGradient>
<linearGradient id="paint47_linear_302_10" x1="302.518" y1="194.678" x2="548.902" y2="186.716" gradientUnits="userSpaceOnUse">
<stop stop-color="#29ABE2"/>
<stop offset="1" stop-color="#0000FF"/>
</linearGradient>
<linearGradient id="paint48_linear_302_10" x1="298.84" y1="187.412" x2="545.225" y2="179.45" gradientUnits="userSpaceOnUse">
<stop stop-color="#29ABE2"/>
<stop offset="1" stop-color="#0000FF"/>
</linearGradient>
<linearGradient id="paint49_linear_302_10" x1="295.163" y1="180.146" x2="541.548" y2="172.184" gradientUnits="userSpaceOnUse">
<stop stop-color="#29ABE2"/>
<stop offset="1" stop-color="#0000FF"/>
</linearGradient>
<linearGradient id="paint50_linear_302_10" x1="290.75" y1="182.393" x2="537.135" y2="174.431" gradientUnits="userSpaceOnUse">
<stop stop-color="#29ABE2"/>
<stop offset="1" stop-color="#0000FF"/>
</linearGradient>
<linearGradient id="paint51_linear_302_10" x1="285.999" y1="189.008" x2="532.384" y2="181.046" gradientUnits="userSpaceOnUse">
<stop stop-color="#29ABE2"/>
<stop offset="1" stop-color="#0000FF"/>
</linearGradient>
<linearGradient id="paint52_linear_302_10" x1="281.248" y1="195.622" x2="527.632" y2="187.66" gradientUnits="userSpaceOnUse">
<stop stop-color="#29ABE2"/>
<stop offset="1" stop-color="#0000FF"/>
</linearGradient>
<linearGradient id="paint53_linear_302_10" x1="276.497" y1="202.236" x2="522.882" y2="194.274" gradientUnits="userSpaceOnUse">
<stop stop-color="#29ABE2"/>
<stop offset="1" stop-color="#0000FF"/>
</linearGradient>
<linearGradient id="paint54_linear_302_10" x1="271.746" y1="208.851" x2="518.13" y2="200.888" gradientUnits="userSpaceOnUse">
<stop stop-color="#29ABE2"/>
<stop offset="1" stop-color="#0000FF"/>
</linearGradient>
<linearGradient id="paint55_linear_302_10" x1="266.994" y1="215.465" x2="513.379" y2="207.503" gradientUnits="userSpaceOnUse">
<stop stop-color="#29ABE2"/>
<stop offset="1" stop-color="#0000FF"/>
</linearGradient>
<linearGradient id="paint56_linear_302_10" x1="262.243" y1="222.079" x2="508.628" y2="214.117" gradientUnits="userSpaceOnUse">
<stop stop-color="#29ABE2"/>
<stop offset="1" stop-color="#0000FF"/>
</linearGradient>
<linearGradient id="paint57_linear_302_10" x1="257.492" y1="228.694" x2="503.877" y2="220.731" gradientUnits="userSpaceOnUse">
<stop stop-color="#29ABE2"/>
<stop offset="1" stop-color="#0000FF"/>
</linearGradient>
<linearGradient id="paint58_linear_302_10" x1="252.741" y1="235.308" x2="499.126" y2="227.346" gradientUnits="userSpaceOnUse">
<stop stop-color="#29ABE2"/>
<stop offset="1" stop-color="#0000FF"/>
</linearGradient>
<linearGradient id="paint59_linear_302_10" x1="247.99" y1="241.922" x2="494.375" y2="233.96" gradientUnits="userSpaceOnUse">
<stop stop-color="#29ABE2"/>
<stop offset="1" stop-color="#0000FF"/>
</linearGradient>
<linearGradient id="paint60_linear_302_10" x1="243.239" y1="248.536" x2="489.624" y2="240.574" gradientUnits="userSpaceOnUse">
<stop stop-color="#29ABE2"/>
<stop offset="1" stop-color="#0000FF"/>
</linearGradient>
<linearGradient id="paint61_linear_302_10" x1="238.487" y1="255.151" x2="484.873" y2="247.189" gradientUnits="userSpaceOnUse">
<stop stop-color="#29ABE2"/>
<stop offset="1" stop-color="#0000FF"/>
</linearGradient>
<linearGradient id="paint62_linear_302_10" x1="233.737" y1="261.765" x2="480.122" y2="253.803" gradientUnits="userSpaceOnUse">
<stop stop-color="#29ABE2"/>
<stop offset="1" stop-color="#0000FF"/>
</linearGradient>
<linearGradient id="paint63_linear_302_10" x1="228.985" y1="268.379" x2="475.37" y2="260.417" gradientUnits="userSpaceOnUse">
<stop stop-color="#29ABE2"/>
<stop offset="1" stop-color="#0000FF"/>
</linearGradient>
<linearGradient id="paint64_linear_302_10" x1="224.234" y1="274.994" x2="470.619" y2="267.032" gradientUnits="userSpaceOnUse">
<stop stop-color="#29ABE2"/>
<stop offset="1" stop-color="#0000FF"/>
</linearGradient>
<linearGradient id="paint65_linear_302_10" x1="219.483" y1="281.608" x2="465.868" y2="273.646" gradientUnits="userSpaceOnUse">
<stop stop-color="#29ABE2"/>
<stop offset="1" stop-color="#0000FF"/>
</linearGradient>
<linearGradient id="paint66_linear_302_10" x1="214.732" y1="288.222" x2="461.117" y2="280.26" gradientUnits="userSpaceOnUse">
<stop stop-color="#29ABE2"/>
<stop offset="1" stop-color="#0000FF"/>
</linearGradient>
<linearGradient id="paint67_linear_302_10" x1="209.981" y1="294.837" x2="456.366" y2="286.875" gradientUnits="userSpaceOnUse">
<stop stop-color="#29ABE2"/>
<stop offset="1" stop-color="#0000FF"/>
</linearGradient>
<linearGradient id="paint68_linear_302_10" x1="205.23" y1="301.451" x2="451.615" y2="293.489" gradientUnits="userSpaceOnUse">
<stop stop-color="#29ABE2"/>
<stop offset="1" stop-color="#0000FF"/>
</linearGradient>
<linearGradient id="paint69_linear_302_10" x1="200.479" y1="308.065" x2="446.864" y2="300.103" gradientUnits="userSpaceOnUse">
<stop stop-color="#29ABE2"/>
<stop offset="1" stop-color="#0000FF"/>
</linearGradient>
<linearGradient id="paint70_linear_302_10" x1="195.728" y1="314.679" x2="442.113" y2="306.717" gradientUnits="userSpaceOnUse">
<stop stop-color="#29ABE2"/>
<stop offset="1" stop-color="#0000FF"/>
</linearGradient>
<linearGradient id="paint71_linear_302_10" x1="190.977" y1="321.294" x2="437.362" y2="313.332" gradientUnits="userSpaceOnUse">
<stop stop-color="#29ABE2"/>
<stop offset="1" stop-color="#0000FF"/>
</linearGradient>
<linearGradient id="paint72_linear_302_10" x1="186.225" y1="327.908" x2="432.61" y2="319.946" gradientUnits="userSpaceOnUse">
<stop stop-color="#29ABE2"/>
<stop offset="1" stop-color="#0000FF"/>
</linearGradient>
<linearGradient id="paint73_linear_302_10" x1="181.474" y1="334.522" x2="427.859" y2="326.56" gradientUnits="userSpaceOnUse">
<stop stop-color="#29ABE2"/>
<stop offset="1" stop-color="#0000FF"/>
</linearGradient>
<linearGradient id="paint74_linear_302_10" x1="176.723" y1="341.137" x2="423.108" y2="333.174" gradientUnits="userSpaceOnUse">
<stop stop-color="#29ABE2"/>
<stop offset="1" stop-color="#0000FF"/>
</linearGradient>
<linearGradient id="paint75_linear_302_10" x1="171.972" y1="347.751" x2="418.357" y2="339.789" gradientUnits="userSpaceOnUse">
<stop stop-color="#29ABE2"/>
<stop offset="1" stop-color="#0000FF"/>
</linearGradient>
<linearGradient id="paint76_linear_302_10" x1="167.221" y1="354.365" x2="413.606" y2="346.403" gradientUnits="userSpaceOnUse">
<stop stop-color="#29ABE2"/>
<stop offset="1" stop-color="#0000FF"/>
</linearGradient>
<linearGradient id="paint77_linear_302_10" x1="162.47" y1="360.979" x2="408.855" y2="353.017" gradientUnits="userSpaceOnUse">
<stop stop-color="#29ABE2"/>
<stop offset="1" stop-color="#0000FF"/>
</linearGradient>
<linearGradient id="paint78_linear_302_10" x1="157.719" y1="367.594" x2="404.104" y2="359.632" gradientUnits="userSpaceOnUse">
<stop stop-color="#29ABE2"/>
<stop offset="1" stop-color="#0000FF"/>
</linearGradient>
<linearGradient id="paint79_linear_302_10" x1="152.968" y1="374.208" x2="399.353" y2="366.246" gradientUnits="userSpaceOnUse">
<stop stop-color="#29ABE2"/>
<stop offset="1" stop-color="#0000FF"/>
</linearGradient>
<linearGradient id="paint80_linear_302_10" x1="148.217" y1="380.822" x2="394.602" y2="372.86" gradientUnits="userSpaceOnUse">
<stop stop-color="#29ABE2"/>
<stop offset="1" stop-color="#0000FF"/>
</linearGradient>
<linearGradient id="paint81_linear_302_10" x1="143.465" y1="387.437" x2="389.85" y2="379.475" gradientUnits="userSpaceOnUse">
<stop stop-color="#29ABE2"/>
<stop offset="1" stop-color="#0000FF"/>
</linearGradient>
<linearGradient id="paint82_linear_302_10" x1="138.714" y1="394.051" x2="385.099" y2="386.089" gradientUnits="userSpaceOnUse">
<stop stop-color="#29ABE2"/>
<stop offset="1" stop-color="#0000FF"/>
</linearGradient>
<linearGradient id="paint83_linear_302_10" x1="133.963" y1="400.665" x2="380.348" y2="392.703" gradientUnits="userSpaceOnUse">
<stop stop-color="#29ABE2"/>
<stop offset="1" stop-color="#0000FF"/>
</linearGradient>
<linearGradient id="paint84_linear_302_10" x1="129.212" y1="407.28" x2="375.597" y2="399.318" gradientUnits="userSpaceOnUse">
<stop stop-color="#29ABE2"/>
<stop offset="1" stop-color="#0000FF"/>
</linearGradient>
<linearGradient id="paint85_linear_302_10" x1="124.461" y1="413.894" x2="370.846" y2="405.932" gradientUnits="userSpaceOnUse">
<stop stop-color="#29ABE2"/>
<stop offset="1" stop-color="#0000FF"/>
</linearGradient>
<linearGradient id="paint86_linear_302_10" x1="119.71" y1="420.508" x2="366.095" y2="412.546" gradientUnits="userSpaceOnUse">
<stop stop-color="#29ABE2"/>
<stop offset="1" stop-color="#0000FF"/>
</linearGradient>
<linearGradient id="paint87_linear_302_10" x1="114.959" y1="427.122" x2="361.344" y2="419.161" gradientUnits="userSpaceOnUse">
<stop stop-color="#29ABE2"/>
<stop offset="1" stop-color="#0000FF"/>
</linearGradient>
<linearGradient id="paint88_linear_302_10" x1="110.208" y1="433.737" x2="356.592" y2="425.775" gradientUnits="userSpaceOnUse">
<stop stop-color="#29ABE2"/>
<stop offset="1" stop-color="#0000FF"/>
</linearGradient>
<linearGradient id="paint89_linear_302_10" x1="105.457" y1="440.351" x2="351.842" y2="432.389" gradientUnits="userSpaceOnUse">
<stop stop-color="#29ABE2"/>
<stop offset="1" stop-color="#0000FF"/>
</linearGradient>
<linearGradient id="paint90_linear_302_10" x1="100.705" y1="446.965" x2="347.09" y2="439.003" gradientUnits="userSpaceOnUse">
<stop stop-color="#29ABE2"/>
<stop offset="1" stop-color="#0000FF"/>
</linearGradient>
<linearGradient id="paint91_linear_302_10" x1="95.9543" y1="453.58" x2="342.339" y2="445.618" gradientUnits="userSpaceOnUse">
<stop stop-color="#29ABE2"/>
<stop offset="1" stop-color="#0000FF"/>
</linearGradient>
<linearGradient id="paint92_linear_302_10" x1="91.2031" y1="460.194" x2="337.588" y2="452.232" gradientUnits="userSpaceOnUse">
<stop stop-color="#29ABE2"/>
<stop offset="1" stop-color="#0000FF"/>
</linearGradient>
<linearGradient id="paint93_linear_302_10" x1="86.4521" y1="466.808" x2="332.837" y2="458.846" gradientUnits="userSpaceOnUse">
<stop stop-color="#29ABE2"/>
<stop offset="1" stop-color="#0000FF"/>
</linearGradient>
<linearGradient id="paint94_linear_302_10" x1="81.7009" y1="473.423" x2="328.086" y2="465.461" gradientUnits="userSpaceOnUse">
<stop stop-color="#29ABE2"/>
<stop offset="1" stop-color="#0000FF"/>
</linearGradient>
<linearGradient id="paint95_linear_302_10" x1="76.9498" y1="480.037" x2="323.335" y2="472.075" gradientUnits="userSpaceOnUse">
<stop stop-color="#29ABE2"/>
<stop offset="1" stop-color="#0000FF"/>
</linearGradient>
<linearGradient id="paint96_linear_302_10" x1="72.1986" y1="486.651" x2="318.584" y2="478.689" gradientUnits="userSpaceOnUse">
<stop stop-color="#29ABE2"/>
<stop offset="1" stop-color="#0000FF"/>
</linearGradient>
<linearGradient id="paint97_linear_302_10" x1="67.4475" y1="493.266" x2="313.833" y2="485.304" gradientUnits="userSpaceOnUse">
<stop stop-color="#29ABE2"/>
<stop offset="1" stop-color="#0000FF"/>
</linearGradient>
<linearGradient id="paint98_linear_302_10" x1="62.6966" y1="499.88" x2="309.082" y2="491.918" gradientUnits="userSpaceOnUse">
<stop stop-color="#29ABE2"/>
<stop offset="1" stop-color="#0000FF"/>
</linearGradient>
<linearGradient id="paint99_linear_302_10" x1="57.9454" y1="506.494" x2="304.33" y2="498.532" gradientUnits="userSpaceOnUse">
<stop stop-color="#29ABE2"/>
<stop offset="1" stop-color="#0000FF"/>
</linearGradient>
<linearGradient id="paint100_linear_302_10" x1="53.1943" y1="513.109" x2="299.579" y2="505.146" gradientUnits="userSpaceOnUse">
<stop stop-color="#29ABE2"/>
<stop offset="1" stop-color="#0000FF"/>
</linearGradient>
<linearGradient id="paint101_linear_302_10" x1="48.4431" y1="519.723" x2="294.828" y2="511.761" gradientUnits="userSpaceOnUse">
<stop stop-color="#29ABE2"/>
<stop offset="1" stop-color="#0000FF"/>
</linearGradient>
<clipPath id="clip0_302_10">
<rect width="666.257" height="605.886" fill="white" transform="translate(0 546.212) rotate(-55.0669)"/>
</clipPath>
</defs>
</svg>
